<svg xmlns="http://www.w3.org/2000/svg" viewBox="0 0 32 32">
  <rect width="32" height="32" rx="3" fill="#13110e"/>
  <!-- skull -->
  <path d="M16 2 C8.5 2 3 8 3 15 C3 20.5 6.5 25 11 26.5 L11 30 L21 30 L21 26.5 C25.5 25 29 20.5 29 15 C29 8 23.5 2 16 2 Z" fill="#4f8fff"/>
  <!-- eye sockets -->
  <ellipse cx="11.5" cy="15" rx="3.5" ry="4" fill="#13110e"/>
  <ellipse cx="20.5" cy="15" rx="3.5" ry="4" fill="#13110e"/>
  <!-- nose cavity -->
  <path d="M14.5 21 L17.5 21 L16 23.5 Z" fill="#13110e"/>
  <!-- teeth dividers -->
  <rect x="15.25" y="26.5" width="1.5" height="3.5" fill="#13110e"/>
  <rect x="11"    y="27"   width="1.5" height="3"   fill="#13110e"/>
  <rect x="19.5"  y="27"   width="1.5" height="3"   fill="#13110e"/>
</svg>
